<svg width="12" height="20" viewBox="0 0 12 20" fill="none" xmlns="http://www.w3.org/2000/svg">
<path d="M4.49895 1.42857V4.46428C3.21147 4.78055 2.07081 5.49577 1.25639 6.49747C0.441969 7.49916 0 8.73049 0 9.99777C0 11.265 0.441969 12.4964 1.25639 13.4981C2.07081 14.4998 3.21147 15.215 4.49895 15.5312V18.5714C4.49895 18.9503 4.65686 19.3137 4.93793 19.5816C5.21901 19.8495 5.60023 20 5.99772 20C6.39522 20 6.77644 19.8495 7.05752 19.5816C7.33859 19.3137 7.4965 18.9503 7.4965 18.5714V15.5335C8.78502 15.218 9.92685 14.5029 10.7422 13.501C11.5575 12.499 12 11.2669 12 9.99888C12 8.73084 11.5575 7.49881 10.7422 6.49682C9.92685 5.49482 8.78502 4.77978 7.4965 4.46428V1.42857C7.4965 1.04969 7.33859 0.686328 7.05752 0.418419C6.77644 0.15051 6.39522 0 5.99772 0C5.60023 0 5.21901 0.15051 4.93793 0.418419C4.65686 0.686328 4.49895 1.04969 4.49895 1.42857ZM8.99527 10C8.99527 10.5651 8.81946 11.1175 8.49009 11.5873C8.16072 12.0572 7.69256 12.4234 7.14483 12.6397C6.5971 12.8559 5.9944 12.9125 5.41293 12.8022C4.83147 12.692 4.29736 12.4199 3.87814 12.0203C3.45893 11.6207 3.17344 11.1116 3.05778 10.5574C2.94212 10.0032 3.00148 9.42869 3.22836 8.90662C3.45523 8.38454 3.83944 7.93832 4.33238 7.62437C4.82532 7.31043 5.40487 7.14286 5.99772 7.14286C6.79246 7.14368 7.55439 7.44497 8.11635 7.98061C8.67831 8.51625 8.9944 9.24249 8.99527 10Z" fill="white"/>
</svg>
